<mxfile host="app.diagrams.net" modified="2021-11-23T10:04:14.175Z" agent="5.0 (Macintosh)" etag="cRREPQBuHbA0dMNMCPA2" version="15.7.4" type="github">
  <diagram id="nK492FVaZ117pC25r2-5" name="Page-1">
    <mxGraphModel dx="946" dy="527" grid="1" gridSize="10" guides="1" tooltips="1" connect="1" arrows="1" fold="1" page="1" pageScale="1" pageWidth="827" pageHeight="1169" math="0" shadow="0">
      <root>
        <mxCell id="0" />
        <mxCell id="1" parent="0" />
        <mxCell id="jQaBSSKH5Zb_pTdHGzHO-1" value="" style="rounded=0;whiteSpace=wrap;html=1;" vertex="1" parent="1">
          <mxGeometry x="320" y="210" width="120" height="60" as="geometry" />
        </mxCell>
      </root>
    </mxGraphModel>
  </diagram>
</mxfile>
